<?xml version="1.0" standalone="no"?>
<!DOCTYPE svg PUBLIC "-//W3C//DTD SVG 20010904//EN"
 "http://www.w3.org/TR/2001/REC-SVG-20010904/DTD/svg10.dtd">
<svg version="1.0" xmlns="http://www.w3.org/2000/svg"
 width="73.000000pt" height="1177.000000pt" viewBox="0 0 73.000000 1177.000000"
 preserveAspectRatio="xMidYMid meet">
<metadata>
Created by potrace 1.15, written by Peter Selinger 2001-2017
</metadata>
<g transform="translate(0.000000,1177.000000) scale(0.100000,-0.100000)"
fill="#000000" stroke="none">
<path d="M240 11754 c-92 -33 -158 -93 -208 -188 -25 -46 -27 -61 -27 -161 0
-106 1 -112 34 -173 58 -107 159 -178 268 -189 l53 -6 0 -293 c0 -278 -1 -294
-18 -294 -57 0 -84 -106 -39 -148 13 -12 31 -22 40 -22 15 0 17 -12 17 -85 0
-76 -2 -85 -18 -85 -57 0 -84 -106 -39 -148 13 -12 31 -22 40 -22 16 0 17 -66
17 -960 0 -923 -1 -960 -18 -960 -57 0 -84 -106 -39 -148 13 -12 31 -22 40
-22 15 0 17 -12 17 -85 0 -76 -2 -85 -18 -85 -57 0 -84 -106 -39 -148 13 -12
31 -22 40 -22 16 0 17 -102 17 -1539 l0 -1538 -53 -6 c-109 -11 -210 -82 -268
-189 -33 -61 -34 -67 -34 -173 0 -106 1 -112 34 -173 58 -107 159 -178 268
-189 l53 -6 0 -243 c0 -230 -1 -244 -18 -244 -57 0 -84 -106 -39 -148 13 -12
31 -22 40 -22 15 0 17 -12 17 -85 0 -76 -2 -85 -18 -85 -57 0 -84 -106 -39
-148 13 -12 31 -22 40 -22 16 0 17 -74 17 -1080 l0 -1080 -32 0 c-74 -1 -172
-73 -209 -154 -25 -56 -25 -176 0 -232 24 -52 83 -111 135 -135 56 -25 176
-25 232 0 52 24 111 83 135 135 25 56 25 176 0 232 -37 81 -135 153 -208 154
l-33 0 0 1080 c0 890 2 1080 13 1080 27 0 57 45 57 86 0 41 -30 84 -58 84 -8
0 -12 26 -12 85 0 64 3 85 13 85 27 0 57 45 57 86 0 41 -30 84 -58 84 -9 0
-12 62 -12 244 l0 243 49 6 c105 12 205 85 262 189 33 61 34 67 34 173 0 106
-1 112 -34 173 -57 104 -157 177 -262 189 l-49 6 0 1538 c0 1271 2 1539 13
1539 27 0 57 45 57 86 0 41 -30 84 -58 84 -8 0 -12 26 -12 85 0 64 3 85 13 85
27 0 57 45 57 86 0 41 -30 84 -58 84 -9 0 -12 227 -12 960 0 791 2 960 13 960
27 0 57 45 57 86 0 41 -30 84 -58 84 -8 0 -12 26 -12 85 0 64 3 85 13 85 27 0
57 45 57 86 0 41 -30 84 -58 84 -9 0 -12 74 -12 294 l0 293 49 6 c105 12 205
85 262 189 33 61 34 67 34 173 0 106 -1 112 -34 173 -39 71 -99 129 -169 163
-63 30 -215 37 -282 13z m272 -45 c251 -128 251 -480 -1 -608 -82 -43 -210
-42 -293 0 -251 128 -251 480 1 608 82 43 210 42 293 0z m0 -7340 c251 -128
251 -480 -1 -608 -82 -43 -210 -42 -293 0 -251 128 -251 480 1 608 82 43 210
42 293 0z m-93 -4009 c10 -5 24 -22 30 -39 10 -24 10 -34 -3 -59 -9 -17 -20
-34 -26 -37 -5 -3 -10 -19 -10 -35 0 -19 -6 -31 -19 -35 -30 -9 -51 5 -51 35
0 16 -5 32 -10 35 -6 3 -17 20 -26 37 -27 53 8 107 69 108 16 0 36 -4 46 -10z"/>
</g>
</svg>
